<svg width="1200" height="1288" viewBox="0 0 1200 1288" fill="none" xmlns="http://www.w3.org/2000/svg">
<rect y="183" width="1200" height="1105" fill="#FAFAFA"/>
<path fill-rule="evenodd" clip-rule="evenodd" d="M0 108L33 96C67 84 133 60 200 72C267 84 333 132 400 126C467 120 533 60 600 54C667 48 733 96 800 96C867 96 933 48 1000 24C1067 0 1133 0 1167 0H1200V252H1167C1133 252 1067 252 1000 252C933 252 867 252 800 252C733 252 667 252 600 252C533 252 467 252 400 252C333 252 267 252 200 252C133 252 67 252 33 252H0V108Z" fill="#FAFAFA"/>
</svg>
