<svg width="120" height="120" viewBox="0 0 120 120" fill="none" xmlns="http://www.w3.org/2000/svg">
<circle cx="60" cy="60" r="60" fill="url(#paint0_linear_13154_160)"/>
<rect x="43.5765" y="90.0635" width="19.2" height="65.7426" rx="9.6" transform="rotate(-135 43.5765 90.0635)" fill="#FAE4F6"/>
<path d="M66.6813 66.96H76.2913C81.5933 66.96 85.8913 71.258 85.8913 76.56V76.56C85.8913 81.8619 81.5908 86.16 76.2888 86.16V86.16C70.9841 86.16 66.6813 81.8596 66.6813 76.5549V66.96Z" fill="#FDF3FB"/>
<path fill-rule="evenodd" clip-rule="evenodd" d="M52.9316 43.434C52.9283 38.1348 48.6315 33.8401 43.3316 33.8401C38.0297 33.8401 33.7316 38.1382 33.7316 43.4401V76.5601C33.7316 81.0607 36.8286 84.8379 41.0077 85.8769C44.2038 86.721 47.7504 85.89 50.2563 83.3841L66.6803 66.9601H62.5316C57.2297 66.9601 52.9316 62.662 52.9316 57.3601L52.9316 53.5559V43.4401C52.9316 43.438 52.9316 43.436 52.9316 43.434Z" fill="#FDF2FB"/>
<defs>
<linearGradient id="paint0_linear_13154_160" x1="60" y1="0" x2="60" y2="120" gradientUnits="userSpaceOnUse">
<stop stop-color="#EEB3E4"/>
<stop offset="1" stop-color="#F9C9F1"/>
</linearGradient>
</defs>
</svg>
