<svg width="500" height="500" viewBox="0 0 500 500" fill="none" xmlns="http://www.w3.org/2000/svg">
<circle cx="250" cy="250" r="250" fill="url(#paint0_linear_12924_48)"/>
<g filter="url(#filter0_d_12924_48)">
<path fill-rule="evenodd" clip-rule="evenodd" d="M221.042 180.95C221.004 158.88 203.1 141 181.021 141C158.918 141 141 158.918 141 181.021V208V238.979V261.021V261.5V283V318.951C140.987 329.205 144.895 339.462 152.722 347.286C157.373 351.934 162.884 355.2 168.743 357.082C171.511 357.973 174.411 358.571 177.405 358.839C179.808 359.055 182.227 359.056 184.63 358.839C187.633 358.571 190.54 357.971 193.315 357.076C199.168 355.194 204.673 351.93 209.32 347.286L277.641 279H261.042C238.95 279 221.042 261.091 221.042 239V180.95Z" fill="white" fill-opacity="0.8" shape-rendering="crispEdges"/>
</g>
<g filter="url(#filter1_d_12924_48)">
<path d="M277.652 279H317.694C339.785 279 357.694 296.909 357.694 319C357.694 341.091 339.774 359 317.683 359C295.58 359 277.652 341.082 277.652 318.979V279Z" fill="white" fill-opacity="0.8" shape-rendering="crispEdges"/>
</g>
<path fill-rule="evenodd" clip-rule="evenodd" d="M277.641 279H261.042C238.95 279 221.042 261.091 221.042 239V222.433L251.152 192.339L290.68 152.831C306.309 137.21 331.649 137.21 347.278 152.831C362.907 168.452 362.907 193.779 347.278 209.4L307.75 248.907L280.717 275.926L280.68 275.963L277.641 279Z" fill="white" fill-opacity="0.6"/>
<defs>
<filter id="filter0_d_12924_48" x="115" y="107" width="196.641" height="278.001" filterUnits="userSpaceOnUse" color-interpolation-filters="sRGB">
<feFlood flood-opacity="0" result="BackgroundImageFix"/>
<feColorMatrix in="SourceAlpha" type="matrix" values="0 0 0 0 0 0 0 0 0 0 0 0 0 0 0 0 0 0 127 0" result="hardAlpha"/>
<feOffset dx="4" dy="-4"/>
<feGaussianBlur stdDeviation="15"/>
<feComposite in2="hardAlpha" operator="out"/>
<feColorMatrix type="matrix" values="0 0 0 0 0.4375 0 0 0 0 0.226042 0 0 0 0 0.40166 0 0 0 0.15 0"/>
<feBlend mode="normal" in2="BackgroundImageFix" result="effect1_dropShadow_12924_48"/>
<feBlend mode="normal" in="SourceGraphic" in2="effect1_dropShadow_12924_48" result="shape"/>
</filter>
<filter id="filter1_d_12924_48" x="251.652" y="245" width="140.042" height="140" filterUnits="userSpaceOnUse" color-interpolation-filters="sRGB">
<feFlood flood-opacity="0" result="BackgroundImageFix"/>
<feColorMatrix in="SourceAlpha" type="matrix" values="0 0 0 0 0 0 0 0 0 0 0 0 0 0 0 0 0 0 127 0" result="hardAlpha"/>
<feOffset dx="4" dy="-4"/>
<feGaussianBlur stdDeviation="15"/>
<feComposite in2="hardAlpha" operator="out"/>
<feColorMatrix type="matrix" values="0 0 0 0 0.439216 0 0 0 0 0.227451 0 0 0 0 0.4 0 0 0 0.15 0"/>
<feBlend mode="normal" in2="BackgroundImageFix" result="effect1_dropShadow_12924_48"/>
<feBlend mode="normal" in="SourceGraphic" in2="effect1_dropShadow_12924_48" result="shape"/>
</filter>
<linearGradient id="paint0_linear_12924_48" x1="250" y1="0" x2="250" y2="500" gradientUnits="userSpaceOnUse">
<stop stop-color="#EEB3E4"/>
<stop offset="1" stop-color="#F9C9F1"/>
</linearGradient>
</defs>
</svg>
