<svg width="239" height="213" viewBox="0 0 239 213" fill="none" xmlns="http://www.w3.org/2000/svg">
<path fill-rule="evenodd" clip-rule="evenodd" d="M139.551 12.6626C166.872 10.3632 197.875 -1.01579 218.556 16.9758C239.664 35.3385 233.852 68.0072 235.276 95.9398C236.827 126.336 246.38 159.875 227.042 183.385C206.762 208.04 171.329 215.466 139.551 212.317C110.408 209.429 89.3951 187.43 67.8457 167.609C44.8314 146.44 11.9051 127.18 13.028 95.9398C14.1426 64.9273 46.8881 46.3091 72.8189 29.2415C92.7194 16.1432 115.808 14.661 139.551 12.6626Z" fill="#EEB3E4" fill-opacity="0.25"/>
<path fill-rule="evenodd" clip-rule="evenodd" d="M126.551 5.66261C153.872 3.36318 184.875 -8.01579 205.556 9.97578C226.664 28.3385 220.852 61.0072 222.276 88.9398C223.827 119.336 233.38 152.875 214.042 176.385C193.762 201.04 158.329 208.466 126.551 205.317C97.4084 202.429 76.3951 180.43 54.8457 160.609C31.8314 139.44 -1.09488 120.18 0.027972 88.9398C1.14263 57.9273 33.8881 39.3091 59.8189 22.2415C79.7194 9.14317 102.808 7.66098 126.551 5.66261Z" fill="#EEB3E4"/>
</svg>
