<?xml version="1.0" encoding="utf-8"?>
<!-- Generator: Adobe Illustrator 26.1.0, SVG Export Plug-In . SVG Version: 6.00 Build 0)  -->
<svg version="1.1" id="Layer_1" xmlns="http://www.w3.org/2000/svg" xmlns:xlink="http://www.w3.org/1999/xlink" x="0px" y="0px"
	 viewBox="0 0 112 6" style="enable-background:new 0 0 112 6;" xml:space="preserve">
<style type="text/css">
	.st0{fill:#FFC722;}
</style>
<path class="st0" d="M9.2,1.4c1.9-1.9,5-1.9,6.9,0L17.9,3c1.2,1.1,3,1.1,4.2,0l1.7-1.6c1.9-1.9,5-1.9,6.9,0L32.4,3
	c1.2,1.1,3,1.1,4.2,0l1.7-1.6c1.9-1.9,5-1.9,6.9,0L46.9,3c1.2,1.1,3,1.1,4.2,0l1.7-1.6c0,0,0,0,0,0c0,0,0,0,0,0c1.9-1.9,5-1.9,6.9,0
	L61.4,3c1.2,1.1,3,1.1,4.2,0l1.7-1.6c1.9-1.9,5-1.9,6.9,0L75.9,3c1.2,1.1,3,1.1,4.2,0l1.7-1.6c1.9-1.9,5-1.9,6.9,0L90.4,3
	c1.2,1.1,3,1.1,4.2,0l1.7-1.6c1.9-1.9,5-1.9,6.9,0l1.7,1.6c1.2,1.1,3,1.1,4.2,0l1-0.9c0.4-0.4,1-0.4,1.4,0c0.4,0.4,0.4,1,0,1.4
	l-1,0.9c-1.9,1.9-5,1.9-6.9,0l-1.7-1.6c-1.2-1.1-3-1.1-4.2,0L96,4.5c-1.9,1.9-5,1.9-6.9,0l-1.7-1.6c-1.2-1.1-3-1.1-4.2,0l-1.7,1.6
	c-1.9,1.9-5,1.9-6.9,0l-1.7-1.6c-1.2-1.1-3-1.1-4.2,0l-1.7,1.6c-1.9,1.9-5,1.9-6.9,0l-1.7-1.6c-1.2-1.1-3-1.1-4.1,0c0,0,0,0,0,0
	c0,0,0,0,0,0l-1.7,1.6c-1.9,1.9-5,1.9-6.9,0l-1.7-1.6c-1.2-1.1-3-1.1-4.2,0L38,4.5c-1.9,1.9-5,1.9-6.9,0l-1.7-1.6
	c-1.2-1.1-3-1.1-4.2,0l-1.7,1.6c-1.9,1.9-5,1.9-6.9,0l-1.7-1.6c-1.2-1.1-3-1.1-4.2,0L8.9,4.5C7,6.3,3.9,6.3,2,4.5L1,3.5
	c-0.4-0.4-0.4-1,0-1.4c0.4-0.4,1-0.4,1.4,0l1,0.9c1.2,1.1,3,1.1,4.2,0L9.2,1.4z"/>
</svg>
