<svg width="359" height="230" viewBox="0 0 359 230" fill="none" xmlns="http://www.w3.org/2000/svg">
<path fill-rule="evenodd" clip-rule="evenodd" d="M170.954 11.0641C202.008 16.307 224.009 32.902 248.705 49.4726C290.239 77.3412 364.598 92.8032 358.665 137.015C352.768 180.967 278.531 186.563 228.395 200.834C188.794 212.106 148.665 220.027 109.399 207.965C64.3085 194.114 20.0234 171.067 6.32053 132.617C-8.2567 91.7147 2.0913 42.5702 40.3798 14.3007C74.6988 -11.0379 126.05 3.48302 170.954 11.0641Z" fill="#FFC722"/>
<path fill-rule="evenodd" clip-rule="evenodd" d="M160.716 46.0301C189.001 50.783 209.042 65.8271 231.537 80.849C269.368 106.113 337.099 120.13 331.695 160.21C326.323 200.054 258.704 205.128 213.037 218.064C176.966 228.283 140.414 235.464 104.648 224.529C63.5763 211.973 23.2386 191.079 10.7571 156.223C-2.52073 119.143 6.90489 74.5917 41.7805 48.9642C73.0404 25.9937 119.815 39.1575 160.716 46.0301Z" fill="#FFC722" fill-opacity="0.25"/>
</svg>
