<svg width="1200" height="643" viewBox="0 0 1200 643" fill="none" xmlns="http://www.w3.org/2000/svg">
<rect y="176" width="1200" height="467" fill="#FFC722"/>
<path fill-rule="evenodd" clip-rule="evenodd" d="M0 84L29 90C57 96 114 108 171 84C229 60 286 0 343 0C400 0 457 60 514 90C571 120 629 120 686 108C743 96 800 72 857 66C914 60 971 72 1029 84C1086 96 1143 108 1171 114L1200 120V192H1171C1143 192 1086 192 1029 192C971 192 914 192 857 192C800 192 743 192 686 192C629 192 571 192 514 192C457 192 400 192 343 192C286 192 229 192 171 192C114 192 57 192 29 192H0V84Z" fill="#FFC722"/>
</svg>
